<?xml version="1.0" encoding="utf-8"?>
<!-- Generator: Adobe Illustrator 19.0.0, SVG Export Plug-In . SVG Version: 6.00 Build 0)  -->
<svg version="1.1" id="GoogleG_x5F_FullColor_x5F_rgb_32_"
	 xmlns="http://www.w3.org/2000/svg" xmlns:xlink="http://www.w3.org/1999/xlink" x="0px" y="0px" width="141.14px" height="144px"
	 viewBox="0 0 141.14 144" enable-background="new 0 0 141.14 144" xml:space="preserve">
<g id="_x31_44px">
	<path fill="#4285F4" d="M141.14,73.64c0-5.07-0.43-9.96-1.24-14.64H72v27.73h38.89c-1.67,9.04-6.72,16.73-14.38,21.88v18.01h23.21
		C133.31,114.08,141.14,95.55,141.14,73.64z"/>
	<path fill="#34A853" d="M72,144c19.43,0,35.79-6.38,47.72-17.38l-23.21-18.01c-6.46,4.35-14.78,6.89-24.51,6.89
		c-18.78,0-34.72-12.66-40.42-29.72H7.67v18.55C19.52,127.85,43.87,144,72,144z"/>
	<path fill="#FABB05" d="M31.58,85.78c-1.46-4.35-2.26-8.99-2.26-13.78c0-4.79,0.8-9.43,2.26-13.78V39.67H7.67
		C2.77,49.39,0,60.37,0,72s2.77,22.61,7.67,32.33L31.58,85.78z"/>
	<path fill="#E94235" d="M72,28.5c10.61,0,20.12,3.65,27.62,10.8l0,0.01l20.55-20.55C107.69,7.14,91.42,0,72,0
		C43.87,0,19.52,16.15,7.67,39.67l23.91,18.55C37.28,41.16,53.22,28.5,72,28.5z"/>
</g>
</svg>
