<?xml version="1.0" encoding="utf-8"?>
<!-- Generator: Adobe Illustrator 19.0.0, SVG Export Plug-In . SVG Version: 6.00 Build 0)  -->
<svg version="1.1" id="GoogleG_x5F_FullColor_x5F_rgb_32_"
	 xmlns="http://www.w3.org/2000/svg" xmlns:xlink="http://www.w3.org/1999/xlink" x="0px" y="0px" width="93.98px" height="96px"
	 viewBox="0 0 93.98 96" enable-background="new 0 0 93.98 96" xml:space="preserve">
<g id="_x39_6px">
	<path fill="#4285F4" d="M93.98,49.09c0-3.51-0.31-6.87-0.9-10.09H48v18.52h25.96c-1.06,6.15-4.45,11.38-9.64,14.88v12h15.46
		C88.81,76.04,93.98,63.69,93.98,49.09z"/>
	<path fill="#34A853" d="M48,96c12.97,0,23.86-4.26,31.78-11.61l-15.46-12C60.02,75.29,54.49,77,48,77
		c-12.52,0-23.14-8.44-26.95-19.81H5.11v12.37C13.01,85.24,29.24,96,48,96z"/>
	<path fill="#FABB05" d="M21.05,57.19c-0.97-2.9-1.5-5.99-1.5-9.19s0.53-6.28,1.5-9.19V26.45H5.11C1.85,32.93,0,40.25,0,48
		s1.85,15.07,5.11,21.55L21.05,57.19z"/>
	<path fill="#E94235" d="M48,19c7.07,0,13.41,2.44,18.42,7.2l0,0.01l13.7-13.7C71.8,4.76,60.95,0,48,0
		C29.24,0,13.01,10.76,5.11,26.45l15.94,12.37C24.86,27.44,35.48,19,48,19z"/>
</g>
</svg>
