<?xml version="1.0" encoding="utf-8"?>
<!-- Generator: Adobe Illustrator 19.0.0, SVG Export Plug-In . SVG Version: 6.00 Build 0)  -->
<svg version="1.1" id="GoogleG_x5F_FullColor_x5F_rgb_32_"
	 xmlns="http://www.w3.org/2000/svg" xmlns:xlink="http://www.w3.org/1999/xlink" x="0px" y="0px" width="23.49px" height="24px"
	 viewBox="0 0 23.49 24" enable-background="new 0 0 23.49 24" xml:space="preserve">
<g id="_x32_4px">
	<path fill="#4285F4" d="M23.49,12.27c0-0.79-0.07-1.54-0.19-2.27H12v4.51h6.47c-0.29,1.48-1.14,2.73-2.4,3.58v3h3.86
		C22.19,19,23.49,15.92,23.49,12.27z"/>
	<path fill="#34A853" d="M12,24c3.24,0,5.95-1.08,7.93-2.91l-3.86-3c-1.08,0.72-2.45,1.16-4.07,1.16c-3.13,0-5.78-2.11-6.73-4.96
		H1.29v3.09C3.26,21.3,7.31,24,12,24z"/>
	<path fill="#FABB05" d="M5.27,14.29C5.02,13.57,4.89,12.8,4.89,12s0.14-1.57,0.38-2.29V6.62H1.29C0.47,8.24,0,10.06,0,12
		s0.47,3.76,1.29,5.38L5.27,14.29z"/>
	<path fill="#E94235" d="M12,4.75c1.77,0,3.35,0.61,4.6,1.8l0,0l3.42-3.42C17.95,1.19,15.24,0,12,0C7.31,0,3.26,2.7,1.29,6.62
		l3.98,3.09C6.22,6.86,8.87,4.75,12,4.75z"/>
</g>
</svg>
