<?xml version="1.0" encoding="utf-8"?>
<!-- Generator: Adobe Illustrator 19.0.0, SVG Export Plug-In . SVG Version: 6.00 Build 0)  -->
<svg version="1.1" id="GoogleG_x5F_FullColor_x5F_rgb_32_"
	 xmlns="http://www.w3.org/2000/svg" xmlns:xlink="http://www.w3.org/1999/xlink" x="0px" y="0px" width="74.49px" height="76px"
	 viewBox="0 0 74.49 76" enable-background="new 0 0 74.49 76" xml:space="preserve">
<g id="_x37_6px">
	<path fill="#4285F4" d="M74.49,38.86c0-2.73-0.24-5.35-0.68-7.86H38v14.77h20.56c-0.88,4.78-3.55,8.84-7.6,11.57v9.49h12.23
		C70.36,60.21,74.49,50.43,74.49,38.86z"/>
	<path fill="#34A853" d="M38,76c10.25,0,18.89-3.37,25.18-9.17l-12.23-9.49C47.54,59.64,43.15,61,38,61
		c-9.93,0-18.35-6.69-21.37-15.7H4.05v9.76C10.3,67.48,23.15,76,38,76z"/>
	<path fill="#FABB05" d="M16.63,45.3c-0.77-2.31-1.2-4.76-1.2-7.3s0.43-4.99,1.2-7.3v-9.76H4.05C1.46,26.07,0,31.86,0,38
		c0,6.14,1.46,11.93,4.05,17.06L16.63,45.3z"/>
	<path fill="#E94235" d="M38,15c5.61,0,10.64,1.93,14.61,5.71l0,0.01L63.42,9.9C56.84,3.77,48.25,0,38,0
		C23.15,0,10.3,8.52,4.05,20.94l12.58,9.76C19.65,21.69,28.07,15,38,15z"/>
</g>
</svg>
