<?xml version="1.0" encoding="utf-8"?>
<!-- Generator: Adobe Illustrator 19.0.0, SVG Export Plug-In . SVG Version: 6.00 Build 0)  -->
<svg version="1.1" id="GoogleG_x5F_FullColor_x5F_rgb_32_"
	 xmlns="http://www.w3.org/2000/svg" xmlns:xlink="http://www.w3.org/1999/xlink" x="0px" y="0px" width="117.61px" height="120px"
	 viewBox="0 0 117.61 120" enable-background="new 0 0 117.61 120" xml:space="preserve">
<g id="_x31_20px">
	<path fill="#4285F4" d="M117.61,61.36c0-4.29-0.4-8.41-1.1-12.36H60v22.98h32.33c-1.34,7.62-5.56,14.12-12.01,18.45v15.09h19.44
		C111.09,95.07,117.61,79.63,117.61,61.36z"/>
	<path fill="#34A853" d="M60,120c16.19,0,29.83-5.32,39.76-14.48L80.32,90.43c-5.36,3.6-12.26,5.71-20.32,5.71
		c-15.61,0-28.86-10.53-33.59-24.73H6.39v15.53C16.26,106.54,36.55,120,60,120z"/>
	<path fill="#FABB05" d="M6.39,86.94l20.02-15.53c-1.2-3.61-1.86-7.44-1.86-11.41c0-3.97,0.66-7.8,1.86-11.41V33.06H6.39
		C2.31,41.16,0,50.31,0,60V60C0,69.69,2.31,78.84,6.39,86.94z"/>
	<path fill="#E94235" d="M60,23.86c8.82,0,16.72,3.04,22.95,8.97l17.2-17.2C89.75,5.95,76.18,0,60,0C36.55,0,16.26,13.46,6.39,33.06
		l20.02,15.53C31.14,34.4,44.39,23.86,60,23.86z"/>
</g>
</svg>
