<?xml version="1.0" encoding="utf-8"?>
<!-- Generator: Adobe Illustrator 19.0.0, SVG Export Plug-In . SVG Version: 6.00 Build 0)  -->
<svg version="1.1" id="GoogleG_x5F_FullColor_x5F_rgb_32_"
	 xmlns="http://www.w3.org/2000/svg" xmlns:xlink="http://www.w3.org/1999/xlink" x="0px" y="0px" width="54.89px" height="56px"
	 viewBox="0 0 54.89 56" enable-background="new 0 0 54.89 56" xml:space="preserve">
<g id="_x35_6px">
	<path fill="#4285F4" d="M54.89,28.64c0-1.96-0.18-3.83-0.49-5.64H28v10.76h15.19c-0.65,3.52-2.62,6.51-5.6,8.53v6.96h8.96
		C51.84,44.37,54.89,37.16,54.89,28.64z"/>
	<path fill="#34A853" d="M37.59,42.28C35.06,43.99,31.81,45,28,45c-7.33,0-13.54-4.94-15.78-11.6H2.98v7.17
		C7.59,49.72,17.06,56,28,56c7.56,0,13.92-2.48,18.56-6.76L37.59,42.28z"/>
	<path fill="#FABB05" d="M11.32,28c0-1.88,0.33-3.7,0.9-5.4v-7.17H2.98C1.08,19.21,0,23.48,0,28s1.08,8.79,2.98,12.57l9.24-7.17
		C11.65,31.7,11.32,29.88,11.32,28z"/>
	<path fill="#E94235" d="M28,11c4.15,0,7.86,1.43,10.8,4.22l0,0.01l7.93-7.93C41.88,2.77,35.55,0,28,0C17.06,0,7.59,6.28,2.98,15.43
		l9.24,7.17C14.46,15.94,20.67,11,28,11z"/>
</g>
</svg>
