<?xml version="1.0" encoding="utf-8"?>
<!-- Generator: Adobe Illustrator 19.0.0, SVG Export Plug-In . SVG Version: 6.00 Build 0)  -->
<svg version="1.1" id="GoogleG_x5F_FullColor_x5F_rgb_32_"
	 xmlns="http://www.w3.org/2000/svg" xmlns:xlink="http://www.w3.org/1999/xlink" x="0px" y="0px" width="62.73px" height="64px"
	 viewBox="0 0 62.73 64" enable-background="new 0 0 62.73 64" xml:space="preserve">
<g id="_x36_4px">
	<path fill="#4285F4" d="M62.73,32.73c0-2.34-0.22-4.58-0.61-6.73H32v12.49h17.44c-0.72,4.08-2.98,7.55-6.42,9.88v7.9h10.19
		C59.25,50.7,62.73,42.47,62.73,32.73z"/>
	<path fill="#34A853" d="M32,64c8.64,0,15.91-2.84,21.21-7.72l-10.19-7.9c-2.9,1.97-6.64,3.13-11.02,3.13
		c-8.4,0-15.52-5.65-18.09-13.28H3.41v8.15C8.67,56.82,19.5,64,32,64z"/>
	<path fill="#FABB05" d="M13.91,38.22c-0.66-1.97-1.04-4.06-1.04-6.22s0.38-4.26,1.04-6.22v-8.15H3.41C1.23,21.95,0,26.83,0,32
		s1.23,10.05,3.41,14.37L13.91,38.22z"/>
	<path fill="#E94235" d="M32,12.5c4.76,0,9.02,1.64,12.38,4.84l0.01,0.02l9.02-9.02C47.86,3.17,40.63,0,32,0
		C19.5,0,8.67,7.18,3.41,17.63l10.5,8.15C16.48,18.15,23.6,12.5,32,12.5z"/>
</g>
</svg>
