<?xml version="1.0" encoding="utf-8"?>
<!-- Generator: Adobe Illustrator 19.0.0, SVG Export Plug-In . SVG Version: 6.00 Build 0)  -->
<svg version="1.1" id="GoogleG_x5F_FullColor_x5F_rgb_32_"
	 xmlns="http://www.w3.org/2000/svg" xmlns:xlink="http://www.w3.org/1999/xlink" x="0px" y="0px" width="27.44px" height="28px"
	 viewBox="0 0 27.44 28" enable-background="new 0 0 27.44 28" xml:space="preserve">
<g id="_x32_8px">
	<path fill="#4285F4" d="M27.44,14.32c0-0.98-0.09-1.93-0.24-2.83H14v5.37h7.6c-0.32,1.77-1.32,3.26-2.82,4.27v3.48h4.49
		C25.91,22.17,27.44,18.58,27.44,14.32z"/>
	<path fill="#34A853" d="M14,28c3.78,0,6.95-1.25,9.27-3.39l-4.49-3.48c-1.26,0.85-2.87,1.37-4.78,1.37c-3.67,0-6.77-2.47-7.89-5.8
		H1.5v3.58C3.8,24.85,8.53,28,14,28z"/>
	<path fill="#FABB05" d="M6.11,16.7c-0.29-0.85-0.45-1.76-0.45-2.7s0.16-1.85,0.45-2.7V7.72H1.5C0.55,9.61,0,11.74,0,14
		s0.55,4.39,1.5,6.28L6.11,16.7z"/>
	<path fill="#E94235" d="M14,5.5c2.07,0,3.93,0.71,5.4,2.11l0,0.01l3.97-3.97C20.94,1.39,17.78,0,14,0C8.53,0,3.8,3.15,1.5,7.72
		l4.61,3.58C7.23,7.97,10.33,5.5,14,5.5z"/>
</g>
</svg>
