<?xml version="1.0" encoding="utf-8"?>
<!-- Generator: Adobe Illustrator 19.0.0, SVG Export Plug-In . SVG Version: 6.00 Build 0)  -->
<svg version="1.1" id="GoogleG_x5F_FullColor_x5F_rgb_32_"
	 xmlns="http://www.w3.org/2000/svg" xmlns:xlink="http://www.w3.org/1999/xlink" x="0px" y="0px" width="37.24px" height="38px"
	 viewBox="0 0 37.24 38" enable-background="new 0 0 37.24 38" xml:space="preserve">
<g id="_x33_8px">
	<path fill="#4285F4" d="M37.24,19.43c0-1.37-0.12-2.68-0.34-3.94l-17.91,0v7.4h10.28c-0.44,2.39-1.78,4.42-3.8,5.78v4.73h6.1
		C35.16,30.09,37.24,25.22,37.24,19.43z"/>
	<path fill="#34A853" d="M19,38c5.13,0,9.43-1.7,12.57-4.6l-6.1-4.73c-1.71,1.15-3.9,1.83-6.48,1.83c-4.96,0-9.17-3.35-10.68-7.86
		H2.04v4.88C5.16,33.73,11.57,38,19,38z"/>
	<path fill="#FABB05" d="M8.32,22.64c-0.39-1.15-0.6-2.38-0.6-3.64s0.22-2.49,0.6-3.64v-4.88H2.04C0.74,13.04,0,15.93,0,19
		s0.74,5.96,2.04,8.52L8.32,22.64z"/>
	<path fill="#E94235" d="M19,7.5c2.81,0,5.32,0.97,7.3,2.85l5.41-5.4C28.42,1.88,24.13,0,19,0C11.57,0,5.16,4.27,2.04,10.48
		l6.29,4.88C9.83,10.85,14.04,7.5,19,7.5z"/>
</g>
</svg>
