<?xml version="1.0" encoding="utf-8"?>
<!-- Generator: Adobe Illustrator 19.0.0, SVG Export Plug-In . SVG Version: 6.00 Build 0)  -->
<svg version="1.1" id="GoogleG_x5F_FullColor_x5F_rgb_32_"
	 xmlns="http://www.w3.org/2000/svg" xmlns:xlink="http://www.w3.org/1999/xlink" x="0px" y="0px" width="46.98px" height="48px"
	 viewBox="0 0 46.98 48" enable-background="new 0 0 46.98 48" xml:space="preserve">
<g id="_x34_8px">
	<path fill="#4285F4" d="M46.98,24.55c0-1.57-0.15-3.09-0.38-4.55H24v9.02h12.94c-0.58,2.96-2.26,5.48-4.78,7.18v6h7.73
		C44.4,38.02,46.98,31.84,46.98,24.55z"/>
	<path fill="#34A853" d="M24,48c6.48,0,11.93-2.13,15.89-5.81l-7.73-6c-2.15,1.45-4.92,2.3-8.16,2.3c-6.26,0-11.57-4.22-13.47-9.91
		H2.56v6.19C6.51,42.62,14.62,48,24,48z"/>
	<path fill="#FABB05" d="M10.53,28.59C10.05,27.14,9.77,25.6,9.77,24s0.27-3.14,0.76-4.59v-6.19H2.56C0.92,16.46,0,20.12,0,24
		c0,3.88,0.92,7.54,2.56,10.78L10.53,28.59z"/>
	<path fill="#E94235" d="M24,9.5c3.54,0,6.71,1.22,9.21,3.6l0,0l6.85-6.85C35.9,2.38,30.47,0,24,0C14.62,0,6.51,5.38,2.56,13.22
		l7.98,6.19C12.43,13.72,17.74,9.5,24,9.5z"/>
</g>
</svg>
