<?xml version="1.0" encoding="utf-8"?>
<!-- Generator: Adobe Illustrator 19.0.0, SVG Export Plug-In . SVG Version: 6.00 Build 0)  -->
<svg version="1.1" id="GoogleG_x5F_FullColor_x5F_rgb_32_"
	 xmlns="http://www.w3.org/2000/svg" xmlns:xlink="http://www.w3.org/1999/xlink" x="0px" y="0px" width="70.57px" height="72px"
	 viewBox="0 0 70.57 72" enable-background="new 0 0 70.57 72" xml:space="preserve">
<g id="_x37_2px">
	<path fill="#4285F4" d="M70.57,36.82c0-2.36-0.2-4.63-0.55-6.82H36v13.99h19.55c-0.94,4.3-3.42,7.96-7.1,10.47v8.85h11.41
		C66.66,57.04,70.57,47.78,70.57,36.82z"/>
	<path fill="#34A853" d="M36,72c9.71,0,17.9-3.19,23.86-8.69l-3.97-3.08l-7.44-5.78C45.17,56.68,40.95,58,36,58
		c-9.47,0-17.51-6.36-20.42-14.95H3.84v9.12C9.76,63.93,21.93,72,36,72z"/>
	<path fill="#FABB05" d="M15.58,43.05c-0.75-2.22-1.17-4.6-1.17-7.05s0.41-4.82,1.17-7.05v-9.12H3.84C1.39,24.7,0,30.18,0,36
		s1.39,11.3,3.84,16.17L15.58,43.05z"/>
	<path fill="#E94235" d="M36,14c5.37,0,10.18,1.85,13.97,5.46l0.01,0.03L60.09,9.38C53.85,3.57,45.71,0,36,0
		C21.93,0,9.76,8.07,3.84,19.83l11.75,9.12C18.49,20.36,26.53,14,36,14z"/>
</g>
</svg>
