<?xml version="1.0" encoding="utf-8"?>
<!-- Generator: Adobe Illustrator 19.0.0, SVG Export Plug-In . SVG Version: 6.00 Build 0)  -->
<svg version="1.1" id="GoogleG_x5F_FullColor_x5F_rgb_32_"
	 xmlns="http://www.w3.org/2000/svg" xmlns:xlink="http://www.w3.org/1999/xlink" x="0px" y="0px" width="133.29px" height="136px"
	 viewBox="0 0 133.29 136" enable-background="new 0 0 133.29 136" xml:space="preserve">
<g id="_x31_36px">
	<path fill="#4285F4" d="M133.3,69.55c0-4.7-0.42-9.21-1.16-13.55H68v25.98h36.58c-1.6,8.46-6.35,15.67-13.55,20.51v17.1h22.03
		C125.91,107.75,133.3,90.24,133.3,69.55z"/>
	<path fill="#34A853" d="M68,136c18.35,0,33.8-6.03,45.07-16.41l-22.03-17.1c-6.08,4.08-13.89,6.47-23.03,6.47
		c-17.7,0-32.71-11.94-38.07-28.02H7.25v17.6C18.43,120.75,41.43,136,68,136z"/>
	<path fill="#FABB05" d="M29.93,80.93c-1.36-4.09-2.11-8.44-2.11-12.93c0-4.49,0.75-8.84,2.11-12.93v-17.6H7.24
		C2.62,46.65,0,57.02,0,68s2.62,21.35,7.25,30.53L29.93,80.93z"/>
	<path fill="#E94235" d="M68,27.05c9.99,0,18.94,3.44,26.01,10.17l19.49-19.49C101.71,6.74,86.34,0,68,0
		C41.43,0,18.43,15.25,7.24,37.47l22.68,17.6C35.29,38.98,50.3,27.05,68,27.05z"/>
</g>
</svg>
