<?xml version="1.0" encoding="utf-8"?>
<!-- Generator: Adobe Illustrator 19.0.0, SVG Export Plug-In . SVG Version: 6.00 Build 0)  -->
<svg version="1.1" id="GoogleG_x5F_FullColor_x5F_rgb_32_"
	 xmlns="http://www.w3.org/2000/svg" xmlns:xlink="http://www.w3.org/1999/xlink" x="0px" y="0px" width="129.38px" height="132px"
	 viewBox="0 0 129.38 132" enable-background="new 0 0 129.38 132" xml:space="preserve">
<g id="_x31_32px">
	<path fill="#FABB05" d="M27,66c0-4.36,0.73-8.58,2.05-12.55L7.02,36.35C2.53,45.27,0,55.34,0,66s2.53,20.73,7.02,29.65l22.03-17.09
		C27.73,74.58,27,70.36,27,66z"/>
	<path fill="#4285F4" d="M66,54v24.99l35.5,0c-0.54,6.04-4.78,14.83-13.11,20.51l21.35,16.57c12.46-11.49,19.63-28.48,19.63-48.57
		c0-5.43-0.69-9.37-1.62-13.5H66z"/>
	<path fill="#34A853" d="M66,105.75c-17.18,0-31.75-11.59-36.95-27.2L7.02,95.65C17.88,117.21,40.21,132,66,132
		c17.81,0,32.81-5.85,43.74-15.93L88.39,99.5C82.97,103.19,75.65,105.75,66,105.75z"/>
	<path fill="#E94235" d="M66,0C40.21,0,17.88,14.79,7.02,36.35l22.03,17.09c5.2-15.61,19.78-27.2,36.95-27.2
		c12.61,0,20.72,5.62,24.98,9.63l19.18-18.67C98.72,6.54,83.8,0,66,0z"/>
</g>
</svg>
