<?xml version="1.0" encoding="utf-8"?>
<!-- Generator: Adobe Illustrator 19.0.0, SVG Export Plug-In . SVG Version: 6.00 Build 0)  -->
<svg version="1.1" id="GoogleG_x5F_FullColor_x5F_rgb_32_"
	 xmlns="http://www.w3.org/2000/svg" xmlns:xlink="http://www.w3.org/1999/xlink" x="0px" y="0px" width="43.12px" height="44px"
	 viewBox="0 0 43.12 44" enable-background="new 0 0 43.12 44" xml:space="preserve">
<g id="_x34_4px">
	<path fill="#4285F4" d="M43.12,22.5c0-1.56-0.14-3.06-0.4-4.5H22v8.51h11.84c-0.51,2.75-2.06,5.08-4.39,6.64v5.52h7.11
		C40.72,34.84,43.12,29.2,43.12,22.5z"/>
	<path fill="#34A853" d="M22,44c5.94,0,10.92-1.97,14.56-5.33l-7.11-5.52c-1.97,1.32-4.49,2.1-7.45,2.1
		c-5.73,0-10.58-3.87-12.31-9.07H2.34v5.7C5.96,39.07,13.4,44,22,44z"/>
	<path fill="#FABB05" d="M9.69,26.18C9.25,24.86,9,23.45,9,22s0.25-2.86,0.69-4.18v-5.7H2.34C0.85,15.09,0,18.45,0,22
		c0,3.55,0.85,6.91,2.34,9.88L9.69,26.18z"/>
	<path fill="#E94235" d="M22,8.75c3.23,0,6.13,1.11,8.41,3.29l6.31-6.31C32.91,2.18,27.93,0,22,0C13.4,0,5.96,4.93,2.34,12.12
		l7.35,5.7C11.42,12.62,16.27,8.75,22,8.75z"/>
</g>
</svg>
