<?xml version="1.0" encoding="utf-8"?>
<!-- Generator: Adobe Illustrator 19.0.0, SVG Export Plug-In . SVG Version: 6.00 Build 0)  -->
<svg version="1.1" id="GoogleG_x5F_FullColor_x5F_rgb_32_"
	 xmlns="http://www.w3.org/2000/svg" xmlns:xlink="http://www.w3.org/1999/xlink" x="0px" y="0px" width="35.28px" height="36px"
	 viewBox="0 0 35.28 36" enable-background="new 0 0 35.28 36" xml:space="preserve">
<g id="_x33_6px">
	<path fill="#4285F4" d="M35.28,18.41c0-1.18-0.1-2.31-0.27-3.41H18v6.99h9.78c-0.47,2.15-1.71,3.98-3.55,5.23v4.41h5.69
		C33.31,28.51,35.28,23.89,35.28,18.41z"/>
	<path fill="#34A853" d="M18,36c4.86,0,8.93-1.61,11.91-4.36l-5.69-4.41C22.59,28.34,20.48,29,18,29c-4.73,0-8.75-3.18-10.2-7.48
		H1.93v4.55C4.89,31.96,10.97,36,18,36z"/>
	<path fill="#FABB05" d="M7.8,21.52C7.42,20.41,7.21,19.23,7.21,18s0.21-2.41,0.59-3.52V9.93H1.93C0.71,12.36,0,15.09,0,18
		s0.71,5.64,1.93,8.07L7.8,21.52z"/>
	<path fill="#E94235" d="M18,7c2.68,0,5.09,0.92,6.99,2.73l0,0.01l5.05-5.05C26.92,1.78,22.86,0,18,0C10.97,0,4.89,4.04,1.93,9.93
		l5.87,4.55C9.25,10.18,13.27,7,18,7z"/>
</g>
</svg>
