<?xml version="1.0" encoding="utf-8"?>
<!-- Generator: Adobe Illustrator 19.0.0, SVG Export Plug-In . SVG Version: 6.00 Build 0)  -->
<svg version="1.1" id="GoogleG_x5F_FullColor_x5F_rgb_32_"
	 xmlns="http://www.w3.org/2000/svg" xmlns:xlink="http://www.w3.org/1999/xlink" x="0px" y="0px" width="148.98px" height="152px"
	 viewBox="0 0 148.98 152" enable-background="new 0 0 148.98 152" xml:space="preserve">
<g id="_x31_52px">
	<path fill="#4285F4" d="M148.98,77.73c0-5.45-0.47-10.71-1.36-15.73H76v29.55h41.11c-1.76,9.56-7.09,17.69-15.18,23.15v18.96h24.43
		C140.72,120.42,148.98,100.86,148.98,77.73z"/>
	<path fill="#34A853" d="M76,152c20.51,0,37.78-6.74,50.37-18.34l-24.43-18.96C95.1,119.3,86.3,122,76,122
		c-19.85,0-36.69-13.37-42.74-31.4H8.1v19.53C20.6,134.96,46.3,152,76,152z"/>
	<path fill="#FABB05" d="M33.26,90.6c-1.54-4.61-2.4-9.52-2.4-14.6c0-5.08,0.85-9.99,2.4-14.6V41.87H8.1C2.93,52.14,0,63.72,0,76
		s2.93,23.86,8.1,34.13L33.26,90.6z"/>
	<path fill="#E94235" d="M76,30c11.22,0,21.28,3.87,29.21,11.42l0.01,0.02l21.63-21.63C113.68,7.53,96.5,0,76,0
		C46.3,0,20.6,17.04,8.1,41.87L33.26,61.4C39.31,43.37,56.15,30,76,30z"/>
</g>
</svg>
