<?xml version="1.0" encoding="utf-8"?>
<!-- Generator: Adobe Illustrator 19.0.0, SVG Export Plug-In . SVG Version: 6.00 Build 0)  -->
<svg version="1.1" id="GoogleG_x5F_FullColor_x5F_rgb_32_"
	 xmlns="http://www.w3.org/2000/svg" xmlns:xlink="http://www.w3.org/1999/xlink" x="0px" y="0px" width="156.82px" height="160px"
	 viewBox="0 0 156.82 160" enable-background="new 0 0 156.82 160" xml:space="preserve">
<g id="_x31_60px">
	<path fill="#4285F4" d="M156.82,81.82c0-6.21-0.63-12.14-1.72-17.82H80v32l42.93-0.01c-1.8,10.11-7.42,18.72-15.99,24.46v20.24
		h26.08C148.13,126.76,156.82,106.17,156.82,81.82z"/>
	<path fill="#34A853" d="M80,160c21.59,0,39.77-7.09,53.02-19.31l-26.08-20.24C99.83,125.21,90.69,128,80,128
		c-20.76,0-38.37-14.02-44.64-32.9H8.52v20.83C21.69,142.06,48.74,160,80,160z"/>
	<path fill="#FABB05" d="M35.36,95.1c-1.58-4.77-2.45-9.85-2.45-15.1c0-5.25,0.87-10.32,2.45-15.1V44.08H8.52
		C3.08,54.88,0,67.08,0,80s3.08,25.12,8.52,35.92L35.36,95.1z"/>
	<path fill="#E94235" d="M80,32c11.7,0,22.19,4.03,30.47,11.91l23.06-23.06C119.66,7.93,101.58,0,80,0
		C48.74,0,21.69,17.94,8.52,44.08L35.36,64.9C41.63,46.02,59.24,32,80,32z"/>
</g>
</svg>
