<?xml version="1.0" encoding="utf-8"?>
<!-- Generator: Adobe Illustrator 19.0.0, SVG Export Plug-In . SVG Version: 6.00 Build 0)  -->
<svg version="1.1" id="GoogleG_x5F_FullColor_x5F_rgb_32_"
	 xmlns="http://www.w3.org/2000/svg" xmlns:xlink="http://www.w3.org/1999/xlink" x="0px" y="0px" width="125.46px" height="128px"
	 viewBox="0 0 125.46 128" enable-background="new 0 0 125.46 128" xml:space="preserve">
<g id="_x31_28px">
	<path fill="#4285F4" d="M125.45,65.45c0-4.68-0.45-9.16-1.22-13.45H64v24.98h34.89c-1.45,8.16-5.95,15.11-12.83,19.78v15.8h20.35
		C118.5,101.41,125.45,84.93,125.45,65.45z"/>
	<path fill="#34A853" d="M64,128c17.27,0,31.82-5.67,42.41-15.45l-20.35-15.8C80.26,100.69,72.77,103,64,103
		c-16.8,0-31.06-11.29-36.21-26.54H6.82v16.28C17.35,113.65,38.99,128,64,128z"/>
	<path fill="#FABB05" d="M27.79,76.46c-1.33-3.93-2.06-8.13-2.06-12.46c0-4.33,0.73-8.53,2.06-12.46V35.26H6.82
		C2.47,43.91,0,53.66,0,64c0,10.34,2.47,20.09,6.82,28.74L27.79,76.46z"/>
	<path fill="#E94235" d="M64,25c9.51,0,18.04,3.28,24.77,9.68l0.01,0.04l18.04-18.04C95.73,6.34,81.26,0,64,0
		C38.99,0,17.35,14.35,6.82,35.26l20.98,16.28C32.94,36.29,47.2,25,64,25z"/>
</g>
</svg>
