<?xml version="1.0" encoding="utf-8"?>
<!-- Generator: Adobe Illustrator 19.0.0, SVG Export Plug-In . SVG Version: 6.00 Build 0)  -->
<svg version="1.1" id="GoogleG_x5F_FullColor_x5F_rgb_32_"
	 xmlns="http://www.w3.org/2000/svg" xmlns:xlink="http://www.w3.org/1999/xlink" x="0px" y="0px" width="31.36px" height="32px"
	 viewBox="0 0 31.36 32" enable-background="new 0 0 31.36 32" xml:space="preserve">
<g id="_x33_2px">
	<path fill="#4285F4" d="M31.36,16.36c0-1.17-0.11-2.29-0.31-3.36H16v6.24h8.72c-0.36,2.04-1.49,3.77-3.21,4.94v3.94h5.08
		C29.61,25.34,31.36,21.23,31.36,16.36z"/>
	<path fill="#34A853" d="M16,32c4.32,0,7.94-1.43,10.59-3.87l-5.08-3.94c-1.45,0.98-3.32,1.56-5.51,1.56c-4.2,0-7.76-2.83-9.05-6.64
		H1.71v4.07C4.35,28.41,9.75,32,16,32z"/>
	<path fill="#FABB05" d="M6.95,19.11C6.62,18.13,6.43,17.08,6.43,16s0.19-2.13,0.52-3.11V8.82H1.71C0.63,10.98,0,13.42,0,16
		s0.63,5.02,1.71,7.18L6.95,19.11z"/>
	<path fill="#E94235" d="M16,6.25c2.38,0,4.51,0.82,6.19,2.42l0,0.01l4.51-4.51C23.93,1.59,20.32,0,16,0C9.75,0,4.35,3.59,1.71,8.82
		l5.24,4.07C8.24,9.08,11.8,6.25,16,6.25z"/>
</g>
</svg>
