<?xml version="1.0" encoding="utf-8"?>
<!-- Generator: Adobe Illustrator 19.0.0, SVG Export Plug-In . SVG Version: 6.00 Build 0)  -->
<svg version="1.1" id="GoogleG_x5F_FullColor_x5F_rgb_32_"
	 xmlns="http://www.w3.org/2000/svg" xmlns:xlink="http://www.w3.org/1999/xlink" x="0px" y="0px" width="29.4px" height="30px"
	 viewBox="0 0 29.4 30" enable-background="new 0 0 29.4 30" xml:space="preserve">
<g id="_x33_0px">
	<path fill="#4285F4" d="M29.4,15.34c0-1.08-0.1-2.11-0.28-3.1H15v5.75h8.08c-0.33,1.91-1.39,3.53-3.01,4.61v3.76h4.85
		C27.76,23.76,29.4,19.91,29.4,15.34z"/>
	<path fill="#34A853" d="M15,30c4.05,0,7.44-1.34,9.93-3.63l-4.85-3.76c-1.34,0.9-3.06,1.43-5.08,1.43c-3.9,0-7.21-2.64-8.39-6.19
		h-5v3.88C4.08,26.63,9.14,30,15,30z"/>
	<path fill="#FABB05" d="M1.61,21.73l5-3.88c-0.3-0.9-0.47-1.86-0.47-2.85s0.17-1.95,0.47-2.85V8.27h-5C0.59,10.3,0,12.58,0,15v0
		C0,17.42,0.59,19.7,1.61,21.73z"/>
	<path fill="#E94235" d="M15,5.97c2.2,0,4.18,0.76,5.74,2.24l4.3-4.3C22.44,1.49,19.05,0,15,0C9.14,0,4.07,3.37,1.61,8.27l5,3.88
		C7.79,8.6,11.1,5.97,15,5.97z"/>
</g>
</svg>
