<?xml version="1.0" encoding="utf-8"?>
<!-- Generator: Adobe Illustrator 19.0.0, SVG Export Plug-In . SVG Version: 6.00 Build 0)  -->
<svg version="1.1" id="GoogleG_x5F_FullColor_x5F_rgb_32_"
	 xmlns="http://www.w3.org/2000/svg" xmlns:xlink="http://www.w3.org/1999/xlink" x="0px" y="0px" width="101.93px" height="104px"
	 viewBox="0 0 101.93 104" enable-background="new 0 0 101.93 104" xml:space="preserve">
<g id="_x31_04px">
	<path fill="#4285F4" d="M101.93,53.18c0-3.89-0.38-7.61-1.04-11.18H52v19.98h28.08c-1.09,6.77-4.79,12.55-10.48,16.38v13.09h16.86
		C96.28,82.39,101.93,69.01,101.93,53.18z"/>
	<path fill="#34A853" d="M52,104c14.03,0,25.85-4.61,34.46-12.55L69.6,78.36c-4.64,3.12-10.61,4.96-17.6,4.96
		c-13.53,0-25.01-9.13-29.11-21.43H5.54v13.46C14.1,92.34,31.68,104,52,104z"/>
	<path fill="#FABB05" d="M22.89,61.89c-1.04-3.12-1.61-6.45-1.61-9.89c0-3.44,0.57-6.76,1.61-9.89V28.65H5.54C2,35.67,0,43.6,0,52
		s2,16.33,5.54,23.35L22.89,61.89z"/>
	<path fill="#E94235" d="M52,20.68c7.64,0,14.49,2.63,19.89,7.77l14.9-14.9C77.78,5.15,66.03,0,52,0C31.68,0,14.1,11.66,5.54,28.65
		l17.35,13.46C26.99,29.81,38.47,20.68,52,20.68z"/>
</g>
</svg>
