<?xml version="1.0" encoding="utf-8"?>
<!-- Generator: Adobe Illustrator 19.0.0, SVG Export Plug-In . SVG Version: 6.00 Build 0)  -->
<svg version="1.1" id="GoogleG_x5F_FullColor_x5F_rgb_32_"
	 xmlns="http://www.w3.org/2000/svg" xmlns:xlink="http://www.w3.org/1999/xlink" x="0px" y="0px" width="109.77px" height="112px"
	 viewBox="0 0 109.77 112" enable-background="new 0 0 109.77 112" xml:space="preserve">
<g id="_x31_12px">
	<path fill="#4285F4" d="M109.77,57.27c0-3.91-0.36-7.66-0.98-11.27H56v21.51h30.38c-1.3,7.04-5.24,13.03-11.2,17.06v13.91h17.93
		C103.69,88.73,109.77,74.32,109.77,57.27z"/>
	<path fill="#34A853" d="M75.18,84.57C70.13,87.99,63.63,90,56,90c-14.66,0-27.1-9.87-31.58-23.18H5.97v14.32
		C15.18,99.44,34.12,112,56,112c15.11,0,27.84-4.97,37.11-13.52L75.18,84.57z"/>
	<path fill="#FABB05" d="M22.64,56c0-3.76,0.63-7.4,1.78-10.82V30.85H5.97C2.16,38.42,0,46.95,0,56s2.16,17.58,5.97,25.15
		l18.46-14.32C23.27,63.4,22.64,59.76,22.64,56z"/>
	<path fill="#E94235" d="M56,22c8.29,0,15.73,2.86,21.59,8.44l0.01,0.02L93.47,14.6C83.76,5.55,71.11,0,56,0
		C34.12,0,15.18,12.56,5.97,30.85l18.46,14.32C28.9,31.87,41.34,22,56,22z"/>
</g>
</svg>
