<?xml version="1.0" encoding="utf-8"?>
<!-- Generator: Adobe Illustrator 19.0.0, SVG Export Plug-In . SVG Version: 6.00 Build 0)  -->
<svg version="1.1" id="GoogleG_x5F_FullColor_x5F_rgb_32_"
	 xmlns="http://www.w3.org/2000/svg" xmlns:xlink="http://www.w3.org/1999/xlink" x="0px" y="0px" width="39.21px" height="40px"
	 viewBox="0 0 39.21 40" enable-background="new 0 0 39.21 40" xml:space="preserve">
<g id="_x34_0px">
	<path fill="#4285F4" d="M39.2,20.45c0-1.55-0.16-3.04-0.43-4.45H20v8h10.73c-0.45,2.53-1.86,4.68-4,6.11v5.05h6.5
		C37.01,31.68,39.2,26.54,39.2,20.45z"/>
	<path fill="#34A853" d="M20,40c5.4,0,9.92-1.79,13.24-4.84l-6.5-5.05C24.95,31.3,22.67,32,20,32c-5.19,0-9.59-3.51-11.15-8.23h-6.7
		v5.2C5.43,35.51,12.18,40,20,40z"/>
	<path fill="#FABB05" d="M8.85,23.77c-0.4-1.19-0.62-2.46-0.62-3.77c0-1.31,0.22-2.58,0.62-3.77v-5.2h-6.7C0.78,13.73,0,16.77,0,20
		s0.78,6.27,2.14,8.97L8.85,23.77z"/>
	<path fill="#E94235" d="M20,8c2.93,0,5.55,1.01,7.62,2.98l5.76-5.76C29.92,1.98,25.39,0,20,0C12.18,0,5.43,4.49,2.14,11.03l6.7,5.2
		C10.41,11.51,14.81,8,20,8z"/>
</g>
</svg>
