<?xml version="1.0" encoding="utf-8"?>
<!-- Generator: Adobe Illustrator 19.0.0, SVG Export Plug-In . SVG Version: 6.00 Build 0)  -->
<svg version="1.1" id="GoogleG_x5F_FullColor_x5F_rgb_32_"
	 xmlns="http://www.w3.org/2000/svg" xmlns:xlink="http://www.w3.org/1999/xlink" x="0px" y="0px" width="50.97px" height="52px"
	 viewBox="0 0 50.97 52" enable-background="new 0 0 50.97 52" xml:space="preserve">
<g id="_x35_2px">
	<path fill="#4285F4" d="M50.97,26.59c0-1.95-0.19-3.81-0.52-5.59H26v9.99h14.04c-0.54,3.39-2.39,6.27-5.24,8.19v6.54h8.43
		C48.14,41.2,50.97,34.5,50.97,26.59z"/>
	<path fill="#34A853" d="M26,52c7.02,0,12.93-2.31,17.23-6.28l-8.43-6.54c-2.32,1.56-5.3,2.48-8.8,2.48
		c-6.77,0-12.5-4.57-14.55-10.72H2.77v6.74C7.05,46.17,15.84,52,26,52z"/>
	<path fill="#FABB05" d="M11.45,30.94c-0.52-1.56-0.81-3.22-0.81-4.94s0.29-3.38,0.81-4.94v-6.74H2.77C1,17.84,0,21.8,0,26
		c0,4.2,1,8.16,2.77,11.67L11.45,30.94z"/>
	<path fill="#E94235" d="M26,10.34c3.82,0,7.24,1.32,9.94,3.89l7.45-7.45C38.89,2.58,33.01,0,26,0C15.84,0,7.05,5.83,2.77,14.33
		l8.68,6.74C13.5,14.91,19.23,10.34,26,10.34z"/>
</g>
</svg>
