<?xml version="1.0" encoding="utf-8"?>
<!-- Generator: Adobe Illustrator 19.0.0, SVG Export Plug-In . SVG Version: 6.00 Build 0)  -->
<svg version="1.1" id="GoogleG_x5F_FullColor_x5F_rgb_32_"
	 xmlns="http://www.w3.org/2000/svg" xmlns:xlink="http://www.w3.org/1999/xlink" x="0px" y="0px" width="78.41px" height="80px"
	 viewBox="0 0 78.41 80" enable-background="new 0 0 78.41 80" xml:space="preserve">
<g id="_x38_0px">
	<path fill="#4285F4" d="M78.41,40.91c0-3.11-0.31-6.07-0.86-8.91H40v15.99l21.47,0.01c-0.9,5.06-3.72,9.36-8.01,12.22v10.12h13.05
		C74.06,63.38,78.41,53.08,78.41,40.91z"/>
	<path fill="#34A853" d="M40,80c10.79,0,19.88-3.55,26.51-9.66L53.46,60.22C49.91,62.6,45.34,64,40,64
		c-10.38,0-19.19-7.01-22.32-16.45H4.26v10.41C10.84,71.03,24.37,80,40,80z"/>
	<path fill="#FABB05" d="M17.68,47.55c-0.79-2.39-1.23-4.92-1.23-7.55c0-2.62,0.44-5.16,1.23-7.55V22.04H4.26
		C1.54,27.44,0,33.54,0,40s1.54,12.56,4.26,17.96L17.68,47.55z"/>
	<path fill="#E94235" d="M40,16c5.85,0,11.1,2.01,15.24,5.95l11.53-11.53C59.83,3.96,50.79,0,40,0C24.37,0,10.84,8.97,4.26,22.04
		l13.42,10.41C20.81,23.01,29.62,16,40,16z"/>
</g>
</svg>
