<?xml version="1.0" encoding="utf-8"?>
<!-- Generator: Adobe Illustrator 19.0.0, SVG Export Plug-In . SVG Version: 6.00 Build 0)  -->
<svg version="1.1" id="GoogleG_x5F_FullColor_x5F_rgb_32_"
	 xmlns="http://www.w3.org/2000/svg" xmlns:xlink="http://www.w3.org/1999/xlink" x="0px" y="0px" width="187.96px" height="192px"
	 viewBox="0 0 187.96 192" enable-background="new 0 0 187.96 192" xml:space="preserve">
<g id="_x31_92px">
	<path fill="#4285F4" d="M187.96,98.18c0-7.02-0.63-13.73-1.79-20.18H96v36.99h51.92c-2.11,12.3-8.89,22.8-19.27,29.8v23.99h30.92
		C177.61,152.07,187.96,127.38,187.96,98.18z"/>
	<path fill="#34A853" d="M128.65,144.79C120.05,150.6,108.97,154,96,154c-25.04,0-46.29-16.88-53.9-39.63H10.21v24.75
		C26.01,170.48,58.49,192,96,192c25.93,0,47.72-8.53,63.57-23.21L128.65,144.79z"/>
	<path fill="#FABB05" d="M39.09,96c0-6.39,1.07-12.57,3.01-18.37V52.88H10.21C3.68,65.85,0,80.49,0,96s3.68,30.15,10.21,43.12
		l31.89-24.75C40.16,108.57,39.09,102.39,39.09,96z"/>
	<path fill="#E94235" d="M96,38c14.15,0,26.83,4.87,36.83,14.4l0,0.02l27.39-27.39C143.59,9.51,121.9,0,96,0
		C58.49,0,26.01,21.52,10.21,52.88L42.1,77.63C49.71,54.88,70.96,38,96,38z"/>
</g>
</svg>
