<?xml version="1.0" encoding="utf-8"?>
<!-- Generator: Adobe Illustrator 19.0.0, SVG Export Plug-In . SVG Version: 6.00 Build 0)  -->
<svg version="1.1" id="GoogleG_x5F_FullColor_x5F_rgb_32_"
	 xmlns="http://www.w3.org/2000/svg" xmlns:xlink="http://www.w3.org/1999/xlink" x="0px" y="0px" width="25.48px" height="26px"
	 viewBox="0 0 25.48 26" enable-background="new 0 0 25.48 26" xml:space="preserve">
<g id="_x32_6px">
	<path fill="#4285F4" d="M25.48,13.3c0-0.79-0.07-1.56-0.18-2.3H13v4.66h7.3c-0.29,1.7-1.23,3.15-2.64,4.13v3.06h3.94
		C24.06,20.59,25.48,17.25,25.48,13.3z"/>
	<path fill="#34A853" d="M13,26c3.51,0,6.45-1.16,8.6-3.15l-3.94-3.06c-1.22,0.85-2.79,1.36-4.66,1.36c-3.49,0-6.44-2.33-7.54-5.48
		H1.39v3.16C3.53,23.08,7.92,26,13,26z"/>
	<path fill="#FABB05" d="M5.46,15.67C5.17,14.83,5,13.93,5,13s0.17-1.83,0.46-2.67V7.17H1.39C0.51,8.92,0,10.9,0,13
		s0.51,4.08,1.39,5.83L5.46,15.67z"/>
	<path fill="#E94235" d="M13,4.84c1.99,0,3.77,0.69,5.18,2.02l0.01,0.03l3.51-3.51C19.44,1.29,16.51,0,13,0
		C7.92,0,3.53,2.92,1.39,7.17l4.07,3.16C6.56,7.17,9.51,4.84,13,4.84z"/>
</g>
</svg>
