<?xml version="1.0" encoding="utf-8"?>
<!-- Generator: Adobe Illustrator 19.0.0, SVG Export Plug-In . SVG Version: 6.00 Build 0)  -->
<svg version="1.1" id="GoogleG_x5F_FullColor_x5F_rgb_32_"
	 xmlns="http://www.w3.org/2000/svg" xmlns:xlink="http://www.w3.org/1999/xlink" x="0px" y="0px" width="58.81px" height="60px"
	 viewBox="0 0 58.81 60" enable-background="new 0 0 58.81 60" xml:space="preserve">
<g id="_x36_0px">
	<path fill="#4285F4" d="M58.81,30.68c0-2.15-0.2-4.21-0.55-6.19H30v11.5h16.17c-0.67,3.81-2.79,7.05-6.01,9.22v7.55h9.73
		C55.55,47.53,58.81,39.81,58.81,30.68z"/>
	<path fill="#34A853" d="M30,60c8.1,0,14.91-2.66,19.88-7.24l-9.73-7.55c-2.68,1.8-6.12,2.86-10.15,2.86
		c-7.81,0-14.42-5.27-16.79-12.37H3.2v7.77C8.13,53.27,18.28,60,30,60z"/>
	<path fill="#FABB05" d="M3.2,43.47l10.02-7.77c-0.6-1.8-0.94-3.72-0.94-5.7s0.34-3.9,0.94-5.7v-7.77H3.2C1.16,20.58,0,25.15,0,30
		V30C0,34.85,1.16,39.42,3.2,43.47z"/>
	<path fill="#E94235" d="M30,11.93c4.41,0,8.36,1.52,11.47,4.49l8.6-8.6C44.87,2.97,38.09,0,30,0C18.28,0,8.13,6.73,3.2,16.53
		l10.02,7.77C15.58,17.2,22.19,11.93,30,11.93z"/>
</g>
</svg>
