<?xml version="1.0" encoding="utf-8"?>
<!-- Generator: Adobe Illustrator 19.0.0, SVG Export Plug-In . SVG Version: 6.00 Build 0)  -->
<svg version="1.1" id="GoogleG_x5F_FullColor_x5F_rgb_32_"
	 xmlns="http://www.w3.org/2000/svg" xmlns:xlink="http://www.w3.org/1999/xlink" x="0px" y="0px" width="33.32px" height="34px"
	 viewBox="0 0 33.32 34" enable-background="new 0 0 33.32 34" xml:space="preserve">
<g id="_x33_4px">
	<path fill="#4285F4" d="M33.32,17.39c0-1.17-0.11-2.3-0.29-3.39H17v6.48h9.4c-0.38,2.19-1.59,4.05-3.42,5.31v4.1h5.28
		C31.46,26.92,33.32,22.56,33.32,17.39z"/>
	<path fill="#34A853" d="M17,34c4.59,0,8.44-1.52,11.25-4.12l-5.28-4.1c-1.57,1.08-3.59,1.71-5.97,1.71c-4.51,0-8.33-3.02-9.73-7.11
		H1.82v4.23C4.62,30.18,10.36,34,17,34z"/>
	<path fill="#FABB05" d="M7.27,20.39C6.91,19.32,6.7,18.18,6.7,17s0.21-2.32,0.58-3.39V9.37H1.82C0.67,11.67,0,14.25,0,17
		s0.67,5.33,1.82,7.63L7.27,20.39z"/>
	<path fill="#E94235" d="M17,6.5c2.56,0,4.86,0.88,6.67,2.61l0.01,0.02l4.7-4.7C25.43,1.68,21.59,0,17,0
		C10.36,0,4.62,3.82,1.82,9.37l5.45,4.23C8.67,9.52,12.49,6.5,17,6.5z"/>
</g>
</svg>
