<?xml version="1.0" encoding="utf-8"?>
<!-- Generator: Adobe Illustrator 19.0.0, SVG Export Plug-In . SVG Version: 6.00 Build 0)  -->
<svg version="1.1" id="GoogleG_x5F_FullColor_x5F_rgb_32_"
	 xmlns="http://www.w3.org/2000/svg" xmlns:xlink="http://www.w3.org/1999/xlink" x="0px" y="0px" width="66.65px" height="68px"
	 viewBox="0 0 66.65 68" enable-background="new 0 0 66.65 68" xml:space="preserve">
<g id="_x36_8px">
	<path fill="#4285F4" d="M66.65,34.77c0-2.35-0.21-4.6-0.58-6.77H34v12.99h18.29c-0.8,4.23-3.19,7.83-6.78,10.25v8.56h11.03
		C62.95,53.87,66.65,45.12,66.65,34.77z"/>
	<path fill="#34A853" d="M34,68c9.17,0,16.9-3.01,22.53-8.21l-11.03-8.56c-3.04,2.04-6.94,3.24-11.51,3.24
		c-8.85,0-16.35-5.97-19.03-14.02H3.62v8.81C9.22,60.38,20.71,68,34,68z"/>
	<path fill="#FABB05" d="M14.97,40.46c-0.68-2.04-1.07-4.21-1.07-6.46c0-2.25,0.38-4.42,1.07-6.46v-8.81H3.62
		C1.31,23.32,0,28.51,0,34s1.31,10.68,3.62,15.27L14.97,40.46z"/>
	<path fill="#E94235" d="M34,13.52c5,0,9.47,1.72,13,5.08l9.74-9.74C50.86,3.37,43.17,0,34,0C20.71,0,9.22,7.62,3.62,18.73
		l11.35,8.81C17.65,19.5,25.15,13.52,34,13.52z"/>
</g>
</svg>
