<?xml version="1.0" encoding="utf-8"?>
<!-- Generator: Adobe Illustrator 19.0.0, SVG Export Plug-In . SVG Version: 6.00 Build 0)  -->
<svg version="1.1" id="GoogleG_x5F_FullColor_x5F_rgb_32_"
	 xmlns="http://www.w3.org/2000/svg" xmlns:xlink="http://www.w3.org/1999/xlink" x="0px" y="0px" width="172.5px" height="176px"
	 viewBox="0 0 172.5 176" enable-background="new 0 0 172.5 176" xml:space="preserve">
<g id="_x31_76px">
	<path fill="#4285F4" d="M172.5,90c0-6.24-0.53-12.25-1.54-18H88v34h47.37c-2.04,11-8.21,20.37-17.56,26.64v22.12h28.5
		C162.94,139.44,172.5,116.78,172.5,90z"/>
	<path fill="#34A853" d="M117.82,132.64C109.95,137.92,99.83,141,88,141c-22.9,0-42.33-15.45-49.27-36.27H9.36v22.79
		C23.84,156.28,53.61,176,88,176c23.75,0,43.75-7.8,58.32-21.24L117.82,132.64z"/>
	<path fill="#FABB05" d="M36,88c0-5.82,0.97-11.45,2.73-16.73V48.47H9.36C3.38,60.36,0,73.78,0,88s3.38,27.64,9.36,39.53
		l29.37-22.79C36.97,99.45,36,93.82,36,88z"/>
	<path fill="#E94235" d="M88,35c12.93,0,24.52,4.45,33.66,13.16l25.22-25.22C131.63,8.72,111.74,0,88,0
		C53.61,0,23.84,19.72,9.36,48.47l29.37,22.79C45.67,50.45,65.1,35,88,35z"/>
</g>
</svg>
